<?xml version="1.0" encoding="UTF-8" standalone="no"?>
<!-- Created with Inkscape (http://www.inkscape.org/) -->

<svg
   xmlns:dc="http://purl.org/dc/elements/1.1/"
   xmlns:cc="http://creativecommons.org/ns#"
   xmlns:rdf="http://www.w3.org/1999/02/22-rdf-syntax-ns#"
   xmlns:svg="http://www.w3.org/2000/svg"
   xmlns="http://www.w3.org/2000/svg"
   xmlns:sodipodi="http://sodipodi.sourceforge.net/DTD/sodipodi-0.dtd"
   xmlns:inkscape="http://www.inkscape.org/namespaces/inkscape"
   width="395.15424"
   height="585.52014"
   id="svg7578"
   version="1.1"
   inkscape:version="0.48.4 r9939"
   sodipodi:docname="New document 114">
  <defs
     id="defs7580" />
  <sodipodi:namedview
     id="base"
     pagecolor="#ffffff"
     bordercolor="#666666"
     borderopacity="1.0"
     inkscape:pageopacity="0.0"
     inkscape:pageshadow="2"
     inkscape:zoom="0.35"
     inkscape:cx="201.14854"
     inkscape:cy="332.76008"
     inkscape:document-units="px"
     inkscape:current-layer="layer1"
     showgrid="false"
     fit-margin-top="0"
     fit-margin-left="0"
     fit-margin-right="0"
     fit-margin-bottom="0"
     inkscape:window-width="515"
     inkscape:window-height="455"
     inkscape:window-x="381"
     inkscape:window-y="170"
     inkscape:window-maximized="0" />
  <metadata
     id="metadata7583">
    <rdf:RDF>
      <cc:Work
         rdf:about="">
        <dc:format>image/svg+xml</dc:format>
        <dc:type
           rdf:resource="http://purl.org/dc/dcmitype/StillImage" />
        <dc:title></dc:title>
      </cc:Work>
    </rdf:RDF>
  </metadata>
  <g
     inkscape:label="Layer 1"
     inkscape:groupmode="layer"
     id="layer1"
     transform="translate(-173.85146,-279.60213)">
    <g
       transform="translate(88.750025,204.40791)"
       inkscape:label="Camada 1"
       id="layer1-9">
      <g
         id="g3792">
        <path
           d="m 146.35,172.14 c 15.76,-5.41 31.59,-10.47 47.91,-14.03 15.04,-3.28 30.39,-5.17 45.74,-5.86 18.32,-0.82 36.87,-1.65 55.06,0.61 14.29,1.78 28.64,3.54 42.35,8.42 9.93,3.53 18.18,10.03 26.62,15.99 8.41,5.93 16.92,12.71 22.29,21.47 2.77,4.52 5.96,10.48 1.88,15.43 -3.97,4.81 -9.53,10.41 -7.16,17.24 2.59,7.45 11.03,10.79 17.77,13.91 12.12,5.59 24.61,13.59 28.74,26.99 4.29,13.91 -3.12,29.2 -9.04,39.91 -5.92,10.71 -8.82,20.84 -13.49,29.28 -4.67,8.44 -2.94,16.34 -4.55,24.36 -0.96,4.8 -3.07,9.05 -3.74,13.99 -1.26,9.18 -1.88,18.65 -1.98,27.99 -0.12,10.18 -3.05,22.49 -11.11,27.3 -3.33,1.99 -2.8,-8.84 -0.12,-11.83 3.51,-3.92 8.09,-10.18 3.74,-15.31 -6.93,-8.16 -19.01,-7.36 -28.59,-10.24 -10.07,-3.03 -22.29,-3.64 -29.68,-11.64 -4.69,-5.08 0.88,-12.53 5.46,-15.65 4.01,-2.72 9.22,-5.87 2.45,-9.3 -6.04,-3.06 -13.04,-2.84 -19.61,-3.26 -23.92,-1.52 -48.03,-0.32 -72.03,0.12 -25.32,0.47 -49.73,7.87 -73.76,15.26 -8.38,-67.05 -16.77,-134.1 -25.15,-201.15 z"
           style="fill:#d40000;fill-rule:evenodd"
           sodipodi:nodetypes="csssssssssszzsssssssssssscc"
           id="path3234"
           inkscape:connector-curvature="0" />
        <path
           d="m 187.25,582.92 -50.72,-416.27 1.48,-1.59 7.49,-0.58 12.31,93.33 40.43,323.38 -1.3,2.02 -7.37,1.3 -2.32,-1.59 z"
           style="fill:#501a08;fill-rule:evenodd"
           sodipodi:nodetypes="ccccccccc"
           id="path3232"
           inkscape:connector-curvature="0" />
      </g>
    </g>
  </g>
</svg>
